<svg width="24" height="24" viewBox="0 0 24 24" fill="none" xmlns="http://www.w3.org/2000/svg">
<g clip-path="url(#clip0_305_300)">
<path d="M4.36219 0C4.94812 0 5.53406 0 6.12 0C6.19 0.0040625 6.26719 0.011875 6.35156 0.0234375C6.92031 0.101562 7.40375 0.364219 7.80188 0.811406C7.88844 0.908906 7.97734 1.01016 8.06859 1.11516C8.08328 1.13203 8.09781 1.13203 8.11219 1.11516C8.46875 0.693281 8.91016 0.385 9.43641 0.190313C9.72578 0.0834375 10.0422 0.02 10.3856 0C10.4716 0 10.5575 0 10.6434 0C10.6466 0.00625 10.6652 0.0101562 10.6992 0.0117188C11.1992 0.0420313 11.6709 0.1875 12.1144 0.448125C12.4191 0.6275 12.7003 0.869687 12.9581 1.17469C13.4316 1.7675 13.663 2.45016 13.6523 3.22266C13.6483 3.52422 13.6492 3.79672 13.6552 4.04016C13.6552 4.05578 13.6623 4.06672 13.6767 4.07297C13.8933 4.17109 14.0327 4.33 14.0948 4.54969C14.128 4.66687 14.1289 4.78312 14.0977 4.89844C14.0452 5.09 13.9406 5.23156 13.7841 5.32312C13.7016 5.37156 13.6184 5.40422 13.5347 5.42109C13.5194 5.42422 13.5039 5.42578 13.4883 5.42578C11.5117 5.42578 9.53516 5.42578 7.55859 5.42578C7.54297 5.42578 7.52734 5.42484 7.51172 5.42297C7.32734 5.40109 7.17203 5.31125 7.04578 5.15344C6.93359 5.01281 6.88578 4.84969 6.90234 4.66406C6.91984 4.43188 7.02828 4.25516 7.22766 4.13391C7.27547 4.10484 7.31609 4.08219 7.34953 4.06594C7.36203 4.05656 7.36828 4.04406 7.36828 4.02844C7.37422 3.78375 7.37516 3.51125 7.37109 3.21094C7.36766 2.96781 7.38641 2.74453 7.42734 2.54109C7.43047 2.52703 7.42734 2.51453 7.41797 2.50359C7.13922 2.17484 6.88188 1.88594 6.64594 1.63687C6.63531 1.62562 6.62375 1.61516 6.61125 1.60547C6.4125 1.44953 6.16969 1.3825 5.88281 1.40437C5.86719 1.40562 5.85156 1.40609 5.83594 1.40578C5.33313 1.40047 4.83313 1.40437 4.33594 1.4175C4.32031 1.41781 4.30469 1.41891 4.28906 1.42078C3.885 1.47297 3.54422 1.65078 3.26672 1.95422C2.98984 2.25672 2.84266 2.60531 2.82516 3C2.82453 3.01562 2.82422 3.03125 2.82422 3.04688C2.82078 6.05094 2.82078 9.06266 2.82422 12.082C2.82422 12.2052 2.82156 12.3223 2.81625 12.4336C2.81438 12.457 2.82516 12.4688 2.84859 12.4688C8.91047 12.4688 14.9531 12.4688 20.9766 12.4688C20.9922 12.4688 21.0078 12.4684 21.0234 12.4678C21.3553 12.4544 21.6522 12.4586 21.9141 12.4805C22.4844 12.5295 22.9678 12.7648 23.3644 13.1864C23.7469 13.593 23.9587 14.0891 24 14.6747C24 14.745 24 14.8153 24 14.8856C23.995 14.8912 23.9911 14.9137 23.9883 14.9531C23.9527 15.4834 23.7427 15.9492 23.3583 16.3505C23.1477 16.5708 22.9042 16.7416 22.628 16.8628C22.5973 16.8766 22.582 16.9002 22.582 16.9336C22.5745 17.2777 22.5745 17.6214 22.582 17.9648C22.6023 18.9423 22.3563 19.833 21.8438 20.6367C21.5672 21.0702 21.2186 21.4481 20.798 21.7706C19.9045 22.4525 18.8678 22.7653 17.6878 22.7091C17.645 22.7072 17.6239 22.7277 17.6245 22.7705C17.6345 23.0233 17.6308 23.23 17.6133 23.3906C17.6036 23.4797 17.5753 23.5608 17.5284 23.6339C17.4147 23.8395 17.2272 23.9616 16.9659 24C16.9306 24 16.8955 24 16.8605 24C16.6327 23.9725 16.4587 23.87 16.3387 23.6925C16.2416 23.5484 16.2016 23.3814 16.2188 23.1914C16.2272 23.0214 16.2262 22.8689 16.2159 22.7339C16.2156 22.7186 16.2078 22.7109 16.1925 22.7109C13.4016 22.7109 10.617 22.7109 7.83891 22.7109C7.80047 22.7109 7.78125 22.7302 7.78125 22.7686C7.79063 22.973 7.79063 23.1686 7.78125 23.3555C7.77125 23.5561 7.68438 23.7192 7.52063 23.8448C7.41719 23.9292 7.28828 23.9809 7.13391 24C7.09859 24 7.06344 24 7.02844 24C6.81813 23.9734 6.65203 23.8827 6.53016 23.7277C6.44203 23.6155 6.39422 23.4953 6.38672 23.3672C6.36703 23.1606 6.36563 22.9595 6.3825 22.7639C6.38531 22.7255 6.3675 22.7072 6.32906 22.7091C5.51313 22.7447 4.77156 22.6116 4.10437 22.3097C3.61187 22.0866 3.16953 21.7828 2.77734 21.3984C2.53141 21.1572 2.3175 20.8945 2.13563 20.6105C1.67813 19.912 1.43891 19.1473 1.41797 18.3164C1.40641 17.8558 1.40641 17.3892 1.41797 16.9167C1.41797 16.8905 1.40578 16.8722 1.38141 16.8619C1.05703 16.7313 0.773281 16.5198 0.530156 16.2277C0.211719 15.8445 0.035 15.3953 0 14.88C0 14.7978 0 14.7158 0 14.6339C0.0059375 14.6336 0.00984375 14.6189 0.0117188 14.5898C0.0407813 14.1055 0.215625 13.6748 0.53625 13.298C0.769062 13.0186 1.05313 12.8061 1.38844 12.6605C1.40813 12.652 1.41797 12.637 1.41797 12.6155C1.41797 9.47859 1.41797 6.34766 1.41797 3.22266C1.41797 3.20703 1.41766 3.19141 1.41703 3.17578C1.40078 2.68141 1.50172 2.20781 1.71984 1.755C1.87547 1.42906 2.0825 1.14 2.34094 0.887812C2.60187 0.629063 2.90062 0.423906 3.23719 0.272344C3.57969 0.118281 3.95469 0.0275 4.36219 0ZM11.6278 1.82531C11.3991 1.62031 11.1237 1.48937 10.8019 1.4325C10.4416 1.36875 10.0997 1.41563 9.77625 1.57313C9.55094 1.67125 9.35375 1.82172 9.18469 2.02453C8.8875 2.38016 8.75172 2.79906 8.77734 3.28125C8.78734 3.51125 8.78391 3.74937 8.76703 3.99563C8.76609 4.01375 8.77469 4.02281 8.79281 4.02281C9.95719 4.01781 11.0984 4.01766 12.2166 4.02234C12.2362 4.02266 12.2461 4.01281 12.2461 3.99281C12.247 3.72938 12.247 3.47266 12.2461 3.22266C12.2439 3.05453 12.2292 2.90906 12.202 2.78625C12.117 2.40188 11.9256 2.08156 11.6278 1.82531ZM22.5928 14.76C22.5928 14.5254 22.4996 14.3004 22.3337 14.1345C22.1679 13.9687 21.9429 13.8755 21.7083 13.8755H2.29172C2.05713 13.8755 1.83214 13.9687 1.66626 14.1345C1.50038 14.3004 1.40719 14.5254 1.40719 14.76C1.40719 14.8762 1.43007 14.9912 1.47452 15.0985C1.51897 15.2058 1.58412 15.3033 1.66626 15.3855C1.7484 15.4676 1.84591 15.5327 1.95322 15.5772C2.06054 15.6217 2.17556 15.6445 2.29172 15.6445H21.7083C21.8244 15.6445 21.9395 15.6217 22.0468 15.5772C22.1541 15.5327 22.2516 15.4676 22.3337 15.3855C22.4159 15.3033 22.481 15.2058 22.5255 15.0985C22.5699 14.9912 22.5928 14.8762 22.5928 14.76ZM2.85281 17.0691C2.83156 17.0738 2.82094 17.087 2.82094 17.1089C2.82469 17.512 2.82578 17.9028 2.82422 18.2812C2.82422 18.2969 2.82469 18.3125 2.82562 18.3281C2.86531 19.0597 3.13438 19.7042 3.63281 20.2617C3.90969 20.5698 4.23297 20.813 4.60266 20.9911C5.06391 21.2139 5.54531 21.3186 6.04688 21.3052C6.0625 21.3048 6.07812 21.3047 6.09375 21.3047C10.0938 21.3172 14.1016 21.3172 18.1172 21.3047C18.5944 21.3031 19.0445 21.1869 19.4677 20.9559C19.793 20.7956 20.0841 20.575 20.3409 20.2941C20.8541 19.7322 21.1319 19.0808 21.1744 18.3398C21.1753 18.3242 21.1758 18.3086 21.1758 18.293C21.1758 17.9064 21.1758 17.5033 21.1758 17.0836C21.1758 17.0617 21.1648 17.0508 21.143 17.0508C15.4033 17.0508 9.67203 17.0508 3.94922 17.0508C3.93359 17.0508 3.91797 17.0516 3.90234 17.0531C3.68922 17.0744 3.43922 17.0775 3.15234 17.0625C3.04984 17.0572 2.95 17.0594 2.85281 17.0691Z" fill="#5D6078"/>
<path d="M7.59977 8.25141C7.98602 8.25141 8.29914 7.93829 8.29914 7.55204C8.29914 7.16578 7.98602 6.85266 7.59977 6.85266C7.21351 6.85266 6.90039 7.16578 6.90039 7.55204C6.90039 7.93829 7.21351 8.25141 7.59977 8.25141Z" fill="#5D6078"/>
<path d="M10.4118 8.25129C10.798 8.25129 11.1112 7.93817 11.1112 7.55191C11.1112 7.16566 10.798 6.85254 10.4118 6.85254C10.0255 6.85254 9.7124 7.16566 9.7124 7.55191C9.7124 7.93817 10.0255 8.25129 10.4118 8.25129Z" fill="#5D6078"/>
<path d="M13.2243 8.25133C13.6103 8.25133 13.9232 7.93842 13.9232 7.55242C13.9232 7.16643 13.6103 6.85352 13.2243 6.85352C12.8383 6.85352 12.5254 7.16643 12.5254 7.55242C12.5254 7.93842 12.8383 8.25133 13.2243 8.25133Z" fill="#5D6078"/>
<path d="M7.59979 11.063C7.98578 11.063 8.29869 10.7501 8.29869 10.3641C8.29869 9.97807 7.98578 9.66516 7.59979 9.66516C7.21379 9.66516 6.90088 9.97807 6.90088 10.3641C6.90088 10.7501 7.21379 11.063 7.59979 11.063Z" fill="#5D6078"/>
<path d="M10.4118 11.063C10.7978 11.063 11.1107 10.7501 11.1107 10.3641C11.1107 9.97807 10.7978 9.66516 10.4118 9.66516C10.0258 9.66516 9.71289 9.97807 9.71289 10.3641C9.71289 10.7501 10.0258 11.063 10.4118 11.063Z" fill="#5D6078"/>
<path d="M13.2238 11.063C13.6098 11.063 13.9227 10.7501 13.9227 10.3641C13.9227 9.97807 13.6098 9.66516 13.2238 9.66516C12.8378 9.66516 12.5249 9.97807 12.5249 10.3641C12.5249 10.7501 12.8378 11.063 13.2238 11.063Z" fill="#5D6078"/>
</g>
<defs>
<clipPath id="clip0_305_300">
<rect width="24" height="24" fill="white"/>
</clipPath>
</defs>
</svg>
