<svg width="24" height="24" viewBox="0 0 24 24" fill="none" xmlns="http://www.w3.org/2000/svg">
<g clip-path="url(#clip0_305_309)">
<path d="M5.27344 0.421534C5.36656 0.425284 5.46031 0.433097 5.55469 0.444972C7.02719 0.628722 8.49203 0.745909 9.94922 0.796534C11.3202 0.850284 12.6912 0.850284 14.0625 0.796534C15.5741 0.737472 17.1014 0.613409 18.6445 0.424347C18.6602 0.422472 18.6758 0.421222 18.6914 0.420597C18.9089 0.413097 19.1198 0.468097 19.3242 0.585597C19.4864 0.676222 19.6183 0.802159 19.7198 0.963409C19.847 1.1656 19.9105 1.39513 19.9102 1.652C19.907 4.28888 19.907 6.9256 19.9102 9.56216C19.9167 9.76028 19.9128 9.93997 19.8984 10.1012C19.8787 10.3425 19.7859 10.5583 19.62 10.7486C19.3672 11.0386 19.0537 11.1743 18.6797 11.1559C18.5559 11.1503 18.423 11.1375 18.2808 11.1175C18.2705 11.1168 18.2655 11.1218 18.2658 11.1325C18.2711 11.4137 18.2709 11.7008 18.2653 11.9936C18.265 12.0054 18.2708 12.0114 18.2827 12.0114C19.3755 12.0142 20.4492 12.0142 21.5039 12.0114C21.683 12.0111 21.8587 12.015 22.0312 12.0231C22.4344 12.0422 22.8064 12.1779 23.1473 12.4304C23.4817 12.6779 23.7181 12.9884 23.8566 13.3618C23.9375 13.5706 23.9853 13.8011 24 14.0533C24 15.7995 24 17.5456 24 19.2915C23.9944 19.2947 23.9905 19.3133 23.9883 19.3473C23.957 19.8029 23.7861 20.2101 23.4755 20.5689C23.2245 20.8592 22.915 21.0653 22.5469 21.1872C22.2119 21.2943 21.8205 21.3265 21.3727 21.2837C21.343 21.2815 21.3281 21.2953 21.3281 21.325C21.3231 21.4522 21.3231 21.5781 21.3281 21.7028C21.3328 21.8475 21.3962 21.9715 21.5184 22.075C21.6409 22.1678 21.7845 22.2156 21.9492 22.2184C22.0986 22.2209 22.2305 22.2765 22.3448 22.3853C22.5273 22.5325 22.6103 22.7229 22.5938 22.9567C22.5737 23.2111 22.4556 23.4015 22.2394 23.5281C22.1344 23.5893 22.022 23.6215 21.9023 23.6247C21.3798 23.6303 20.9277 23.4536 20.5458 23.0945C20.1545 22.7336 19.9466 22.2931 19.9219 21.7731C19.9147 21.625 19.9147 21.4758 19.9219 21.3254C19.9219 21.3036 19.9109 21.2926 19.8891 21.2926C14.6219 21.2926 9.3625 21.2926 4.11094 21.2926C4.08906 21.2926 4.07812 21.3036 4.07812 21.3254C4.08281 21.4717 4.08281 21.6092 4.07812 21.7379C4.06375 22.1833 3.91047 22.5768 3.61828 22.9187C3.28203 23.2984 2.865 23.5259 2.36719 23.6012C2.135 23.6365 1.93281 23.6122 1.76063 23.5281C1.59469 23.4368 1.48438 23.2933 1.42969 23.0973C1.38688 22.9458 1.39859 22.7973 1.46484 22.652C1.54109 22.4767 1.66906 22.3508 1.84875 22.2742C1.925 22.2417 2.00797 22.2231 2.09766 22.2184C2.30641 22.215 2.46953 22.1281 2.58703 21.9578C2.64672 21.8709 2.675 21.7781 2.67188 21.6793C2.67313 21.5618 2.67453 21.4414 2.67609 21.3179C2.67672 21.3008 2.66844 21.2923 2.65125 21.2926C2.37625 21.3026 2.13313 21.2987 1.92188 21.2809C1.47469 21.2468 1.07922 21.0798 0.735469 20.7798C0.304844 20.4136 0.0635938 19.9517 0.0117188 19.3942C0.00734375 19.347 0.0034375 19.3109 0 19.2859C0 17.5318 0 15.7779 0 14.0242C0.0034375 13.9901 0.00734375 13.9481 0.0117188 13.8981C0.0598437 13.3472 0.301094 12.8892 0.735469 12.5242C1.13797 12.1801 1.61156 12.0092 2.15625 12.0114C3.34625 12.0161 4.52109 12.0151 5.68078 12.0086C5.69641 12.0086 5.70422 12.0008 5.70422 11.9851C5.70766 11.7442 5.70859 11.4629 5.70703 11.1414C5.70672 11.1248 5.69844 11.1175 5.68219 11.1193C5.53813 11.1415 5.40969 11.1537 5.29688 11.1559C5.04625 11.164 4.82062 11.0967 4.62 10.9539C4.27406 10.7023 4.10125 10.3595 4.10156 9.92544C4.10313 7.15575 4.10313 4.38622 4.10156 1.61685C4.10156 1.30997 4.19828 1.04732 4.39172 0.828878C4.62984 0.559816 4.92375 0.424034 5.27344 0.421534ZM10.995 2.23513C9.16531 2.20232 7.34672 2.07716 5.53922 1.85966C5.51828 1.85716 5.50781 1.86653 5.50781 1.88778C5.50781 3.37122 5.50781 4.85794 5.50781 6.34794C5.50781 6.37732 5.52234 6.39091 5.55141 6.38872C5.68859 6.37122 5.81859 6.35872 5.94141 6.35122C7.44422 6.25935 8.84 6.59903 10.1287 7.37028C10.1519 7.38403 10.173 7.38153 10.192 7.36278C10.5717 6.97935 10.9956 6.63919 11.4637 6.34232C12.6163 5.61232 13.877 5.24419 15.2461 5.23794C16.3889 5.2295 17.465 5.47466 18.4744 5.97341C18.4941 5.98278 18.5039 5.97653 18.5039 5.95466C18.5039 4.61747 18.5039 3.26794 18.5039 1.90607C18.5039 1.87075 18.4864 1.85513 18.4514 1.85919C16.0352 2.15575 13.5497 2.28107 10.995 2.23513ZM18.4678 7.59106C17.4041 6.902 16.2364 6.59028 14.9648 6.65591C14.162 6.69716 13.4012 6.90122 12.6825 7.2681C12.2181 7.50466 11.7953 7.79669 11.4141 8.14419C11.0312 8.49325 10.6984 8.88591 10.4156 9.32216C10.3988 9.3481 10.4056 9.3606 10.4362 9.35966C11.9644 9.31716 13.4895 9.33778 15.0117 9.42153C16.1498 9.48435 17.2978 9.58294 18.4556 9.71731C18.4878 9.72106 18.5039 9.70669 18.5039 9.67419C18.5039 9.00575 18.5039 8.33372 18.5039 7.6581C18.5039 7.62903 18.4919 7.60669 18.4678 7.59106ZM9.2475 8.48122C8.40312 8.01653 7.50812 7.77138 6.5625 7.74575C6.23156 7.73669 5.88766 7.75685 5.53078 7.80622C5.51547 7.80841 5.50781 7.81716 5.50781 7.83247C5.50781 8.46997 5.50781 9.09372 5.50781 9.70372C5.50781 9.71685 5.51422 9.72263 5.52703 9.72106C6.58609 9.59794 7.65125 9.50216 8.7225 9.43372C8.74594 9.43216 8.7625 9.42075 8.77219 9.3995C8.91062 9.102 9.07281 8.81122 9.25875 8.52716C9.27156 8.50778 9.26781 8.49247 9.2475 8.48122ZM16.8352 12.0142C16.8464 12.0142 16.8522 12.0087 16.8525 11.9978C16.8637 11.6653 16.867 11.3325 16.8623 10.9993C16.862 10.9762 16.8505 10.9637 16.8277 10.9618C15.8811 10.8762 14.9477 10.8159 14.0273 10.7809C12.352 10.7175 10.6841 10.7331 9.02344 10.8278C8.44031 10.86 7.81531 10.905 7.14844 10.9628C7.12531 10.965 7.11375 10.9776 7.11375 11.0008C7.11187 11.3536 7.11266 11.6828 7.11609 11.9884C7.11641 12.0037 7.12422 12.0114 7.13953 12.0114C10.413 12.0098 13.6448 12.0108 16.8352 12.0142ZM1.66125 19.7134C1.78687 19.8278 1.94016 19.8854 2.12109 19.8864C3.91016 19.8951 5.70781 19.8951 7.51406 19.8864C7.53594 19.8864 7.54688 19.8754 7.54688 19.8536C7.54688 17.727 7.54688 15.5926 7.54688 13.4504C7.54688 13.4286 7.53594 13.4176 7.51406 13.4176C5.66594 13.407 3.85359 13.4079 2.07703 13.4204C1.95703 13.4189 1.84375 13.454 1.73719 13.5259C1.54219 13.6578 1.43266 13.8326 1.40859 14.0504C1.40703 14.0661 1.40625 14.0817 1.40625 14.0973C1.39937 15.777 1.39937 17.4645 1.40625 19.1598C1.40719 19.3926 1.49219 19.5772 1.66125 19.7134ZM15.0122 13.4504C15.0122 13.4417 15.0087 13.4334 15.0026 13.4272C14.9964 13.4211 14.9881 13.4176 14.9794 13.4176H8.98594C8.97723 13.4176 8.96889 13.4211 8.96274 13.4272C8.95658 13.4334 8.95312 13.4417 8.95312 13.4504V19.8536C8.95312 19.8623 8.95658 19.8706 8.96274 19.8768C8.96889 19.8829 8.97723 19.8864 8.98594 19.8864H14.9794C14.9881 19.8864 14.9964 19.8829 15.0026 19.8768C15.0087 19.8706 15.0122 19.8623 15.0122 19.8536V13.4504ZM22.3387 13.5906C22.2075 13.4759 22.0464 13.4183 21.8555 13.4176C20.0742 13.4114 18.277 13.4114 16.4639 13.4176C16.4458 13.4176 16.4342 13.4262 16.4292 13.4434C16.4217 13.4862 16.418 13.5401 16.418 13.6051C16.423 15.6676 16.423 17.7436 16.418 19.8329C16.418 19.8686 16.4358 19.8864 16.4714 19.8864C18.2795 19.8864 20.0742 19.8864 21.8555 19.8864C22.0202 19.8929 22.1677 19.849 22.298 19.7547C22.4964 19.6047 22.595 19.3986 22.5938 19.1364C22.5856 17.4645 22.5856 15.8004 22.5938 14.1442C22.5938 14.1286 22.5933 14.1129 22.5923 14.0973C22.5777 13.8864 22.4931 13.7175 22.3387 13.5906Z" fill="#5D6078"/>
<path d="M4.92736 15.9465L3.99364 15.953C3.60532 15.9557 3.29273 16.2727 3.29544 16.661C3.29815 17.0493 3.61514 17.3619 4.00345 17.3592L4.93718 17.3527C5.3255 17.35 5.63809 17.033 5.63538 16.6447C5.63267 16.2563 5.31568 15.9437 4.92736 15.9465Z" fill="#5D6078"/>
<path d="M12.4688 15.9502H11.5313C11.1435 15.9502 10.8291 16.2646 10.8291 16.6524C10.8291 17.0402 11.1435 17.3546 11.5313 17.3546H12.4688C12.8566 17.3546 13.171 17.0402 13.171 16.6524C13.171 16.2646 12.8566 15.9502 12.4688 15.9502Z" fill="#5D6078"/>
<path d="M19.9434 15.9502H19.0059C18.6181 15.9502 18.3037 16.2646 18.3037 16.6524C18.3037 17.0402 18.6181 17.3546 19.0059 17.3546H19.9434C20.3312 17.3546 20.6456 17.0402 20.6456 16.6524C20.6456 16.2646 20.3312 15.9502 19.9434 15.9502Z" fill="#5D6078"/>
</g>
<defs>
<clipPath id="clip0_305_309">
<rect width="24" height="24" fill="white"/>
</clipPath>
</defs>
</svg>
