<svg width="24" height="24" viewBox="0 0 24 24" fill="none" xmlns="http://www.w3.org/2000/svg">
<path d="M14.2027 6.65391C14.2027 6.84399 14.1272 7.02629 13.9928 7.1607C13.8583 7.29511 13.676 7.37063 13.486 7.37063H1.60783C1.41775 7.37063 1.23545 7.29511 1.10104 7.1607C0.966624 7.02629 0.891113 6.84399 0.891113 6.65391V1.93547C0.891113 1.74538 0.966624 1.56308 1.10104 1.42867C1.23545 1.29426 1.41775 1.21875 1.60783 1.21875H13.486C13.676 1.21875 13.8583 1.29426 13.9928 1.42867C14.1272 1.56308 14.2027 1.74538 14.2027 1.93547V6.65391ZM12.7969 2.65406C12.7969 2.64623 12.7938 2.63872 12.7882 2.63318C12.7827 2.62764 12.7752 2.62453 12.7674 2.62453H2.32643C2.31859 2.62453 2.31108 2.62764 2.30554 2.63318C2.30001 2.63872 2.29689 2.64623 2.29689 2.65406V5.93531C2.29689 5.93919 2.29766 5.94303 2.29914 5.94661C2.30063 5.9502 2.3028 5.95345 2.30554 5.95619C2.30829 5.95894 2.31154 5.96111 2.31512 5.9626C2.31871 5.96408 2.32255 5.96484 2.32643 5.96484H12.7674C12.7712 5.96484 12.7751 5.96408 12.7787 5.9626C12.7822 5.96111 12.7855 5.95894 12.7882 5.95619C12.791 5.95345 12.7932 5.9502 12.7946 5.94661C12.7961 5.94303 12.7969 5.93919 12.7969 5.93531V2.65406Z" fill="white"/>
<path d="M19.5469 2.44879C20.4178 2.45348 21.2889 2.45348 22.1602 2.44879C22.2833 2.44473 22.3897 2.46332 22.4794 2.50457C22.6684 2.59144 22.7955 2.71832 22.8605 2.88519C22.8945 2.97519 22.9237 3.07098 22.9481 3.17254C23.2953 4.60566 23.6402 6.03254 23.9827 7.45316C23.9864 7.46848 23.9873 7.48394 23.9855 7.49957C23.9823 7.52238 23.9872 7.54285 24 7.56098C24 7.58848 24 7.61582 24 7.64301C23.9672 7.87269 23.8686 8.0466 23.7042 8.16473C23.5783 8.25473 23.4386 8.29863 23.2852 8.29644C22.7227 8.29551 22.1481 8.29551 21.5616 8.29644C21.5231 8.29644 21.5039 8.31566 21.5039 8.3541C21.5039 9.74535 21.5039 11.1463 21.5039 12.5569C21.5039 12.5854 21.5181 12.5993 21.5466 12.5986C21.8916 12.5843 22.1869 12.5985 22.4325 12.6413C22.7206 12.6913 22.9784 12.8046 23.2059 12.9811C23.5569 13.2477 23.7903 13.5807 23.9062 13.98C23.9491 14.1272 23.9803 14.3039 24 14.5102C24 16.6508 24 18.7914 24 20.9321C23.9937 20.9352 23.9898 20.9538 23.9883 20.9879C23.973 21.4288 23.8158 21.8185 23.5167 22.1569C23.2161 22.5082 22.8381 22.72 22.3828 22.7925C22.2597 22.8122 22.1425 22.8232 22.0312 22.8254C22.0156 22.8269 22 22.8277 21.9844 22.8277C15.3397 22.8305 8.68734 22.8305 2.02734 22.8277C1.89953 22.8277 1.76672 22.816 1.62891 22.7925C1.29016 22.7404 0.988437 22.6046 0.72375 22.3852C0.515312 22.2127 0.349219 22.0077 0.225469 21.7702C0.0982812 21.5227 0.023125 21.2414 0 20.9264C0 18.7818 0 16.6372 0 14.4929C0.0065625 14.4875 0.0104687 14.465 0.0117188 14.4254C0.0214062 14.1219 0.108281 13.8338 0.272344 13.561C0.396406 13.3397 0.570313 13.1464 0.794063 12.9811C1.02438 12.8108 1.28328 12.6961 1.57078 12.6371C1.58609 12.6339 1.60156 12.6316 1.61719 12.63C1.95844 12.5969 2.37016 12.5864 2.85234 12.5986C2.88047 12.5993 2.89453 12.5855 2.89453 12.5574C2.89516 12.3064 2.89516 12.0736 2.89453 11.8589C2.88641 11.5627 2.93719 11.2775 3.04688 11.0035C3.2 10.6157 3.44906 10.3022 3.79406 10.0632C4.16156 9.80723 4.57266 9.67926 5.02734 9.67926C9.67953 9.67769 14.3319 9.67769 18.9844 9.67926C19.3619 9.67926 19.7256 9.77738 20.0756 9.97363C20.0966 9.98551 20.1067 9.97941 20.1061 9.95535C20.0917 9.41566 20.0917 8.87535 20.1061 8.33441C20.1067 8.3091 20.0944 8.29644 20.0691 8.29644C19.4825 8.29644 18.9022 8.29644 18.3281 8.29644C18.1634 8.30301 18.0159 8.2552 17.8856 8.15301C17.7359 8.03551 17.6491 7.88801 17.625 7.71051C17.6128 7.58863 17.6245 7.45582 17.6602 7.31207C18.0111 5.89707 18.3539 4.48207 18.6886 3.06707C18.708 2.97738 18.7411 2.88941 18.788 2.80316C18.8764 2.64098 19.0122 2.53457 19.1953 2.48394C19.3153 2.45988 19.4325 2.44816 19.5469 2.44879ZM19.9444 3.86676C19.7028 4.84894 19.46 5.84988 19.2159 6.86957C19.2131 6.88144 19.2177 6.88738 19.2295 6.88738C20.2736 6.89082 21.3211 6.89176 22.372 6.89019C22.3927 6.89019 22.4006 6.88004 22.3959 6.85973C22.1581 5.8766 21.9167 4.88254 21.6717 3.87754C21.6686 3.86441 21.6603 3.85785 21.6469 3.85785C21.09 3.85441 20.5275 3.85348 19.9594 3.85504C19.9516 3.85504 19.9466 3.85894 19.9444 3.86676ZM4.47375 12.6C4.88688 12.6119 5.25406 12.733 5.57531 12.9633C5.85281 13.1627 6.05594 13.4049 6.18469 13.6899C6.31938 13.9702 6.38672 14.2779 6.38672 14.6129C6.38641 15.3979 6.38641 16.1916 6.38672 16.9941C6.38672 17.0022 6.39078 17.0063 6.39891 17.0063C10.1202 17.0029 13.8523 17.0019 17.5955 17.0035C17.6073 17.0035 17.6133 16.9975 17.6133 16.9857C17.612 16.1732 17.612 15.3744 17.6133 14.5894C17.6139 14.1894 17.7145 13.8291 17.9152 13.5085C18.1058 13.2019 18.3616 12.9694 18.6825 12.811C18.9759 12.6647 19.3031 12.5935 19.6641 12.5972C19.6875 12.5972 19.6992 12.5855 19.6992 12.5621C19.697 12.3121 19.697 12.0621 19.6992 11.8121C19.702 11.7049 19.6816 11.6004 19.6378 11.4985C19.5631 11.3254 19.4352 11.2033 19.2539 11.1324C19.157 11.1005 19.0477 11.0849 18.9258 11.0855C14.3008 11.1039 9.67578 11.1039 5.05078 11.0855C4.82578 11.0768 4.63734 11.15 4.48547 11.3054C4.34984 11.4557 4.28828 11.6519 4.30078 11.8941C4.31297 12.1294 4.31297 12.3599 4.30078 12.5855C4.30078 12.5899 4.35844 12.5947 4.47375 12.6ZM4.98047 14.565C4.98047 14.4162 4.92135 14.2735 4.81613 14.1683C4.7109 14.0631 4.56819 14.0039 4.41937 14.0039H1.96781C1.819 14.0039 1.67628 14.0631 1.57106 14.1683C1.46583 14.2735 1.40672 14.4162 1.40672 14.565V20.8594C1.40672 21.0082 1.46583 21.1509 1.57106 21.2562C1.67628 21.3614 1.819 21.4205 1.96781 21.4205H4.41937C4.56819 21.4205 4.7109 21.3614 4.81613 21.2562C4.92135 21.1509 4.98047 21.0082 4.98047 20.8594V14.565ZM22.5933 14.565C22.5933 14.4914 22.5788 14.4184 22.5506 14.3503C22.5224 14.2822 22.481 14.2204 22.4289 14.1683C22.3768 14.1162 22.315 14.0749 22.2469 14.0467C22.1788 14.0185 22.1059 14.0039 22.0322 14.0039H19.5806C19.4318 14.0039 19.2891 14.0631 19.1839 14.1683C19.0786 14.2735 19.0195 14.4162 19.0195 14.565V20.8594C19.0195 21.0082 19.0786 21.1509 19.1839 21.2562C19.2891 21.3614 19.4318 21.4205 19.5806 21.4205H22.0322C22.1059 21.4205 22.1788 21.406 22.2469 21.3778C22.315 21.3496 22.3768 21.3083 22.4289 21.2562C22.481 21.2041 22.5224 21.1422 22.5506 21.0741C22.5788 21.0061 22.5933 20.9331 22.5933 20.8594V14.565ZM6.38391 20.9616C6.38203 21.0941 6.36047 21.2371 6.31922 21.3905C6.31484 21.4111 6.32328 21.4214 6.34453 21.4214C10.1033 21.4214 13.8714 21.4214 17.6489 21.4214C17.6748 21.4214 17.685 21.4088 17.6794 21.3835C17.6353 21.1894 17.6133 20.9989 17.6133 20.8121C17.6133 20.0349 17.6133 19.2446 17.6133 18.4411C17.6133 18.4202 17.6028 18.4097 17.5819 18.4097C13.8684 18.4097 10.1523 18.4097 6.43359 18.4097C6.40234 18.4097 6.38672 18.4254 6.38672 18.4566C6.39547 19.2919 6.39453 20.1269 6.38391 20.9616Z" fill="white"/>
</svg>
