<svg width="24" height="24" viewBox="0 0 24 24" fill="none" xmlns="http://www.w3.org/2000/svg">
<g clip-path="url(#clip0_305_314)">
<path d="M10.5145 0C14.3155 0 18.1162 0 21.9169 0C22.1331 0.03625 22.2992 0.134844 22.4152 0.295781C22.5064 0.422656 22.5503 0.558438 22.5469 0.703125C22.5509 3.46094 22.5509 6.21094 22.5469 8.95312C22.5469 8.96875 22.5478 8.98438 22.5497 9C22.5744 9.20719 22.5295 9.38984 22.4152 9.54797C22.263 9.74703 22.053 9.84562 21.7852 9.84375C20.172 9.83281 18.5614 9.83281 16.9533 9.84375C16.9323 9.84375 16.9219 9.85422 16.9219 9.87516C16.9219 10.3386 16.9219 10.7864 16.9219 11.2186C16.9219 11.2395 16.9323 11.25 16.9533 11.25C19.1036 11.2484 21.2328 11.2494 23.3409 11.2528C23.3566 11.2528 23.372 11.2537 23.3873 11.2556C23.602 11.2812 23.7702 11.3897 23.8917 11.5809C23.9492 11.6713 23.9853 11.7767 24 11.8973C24 15.7255 24 19.5536 24 23.3817C23.9566 23.597 23.858 23.7592 23.7042 23.8683C23.607 23.937 23.4937 23.9809 23.3644 24C23.3175 24 23.2706 24 23.2238 24C23.0028 23.9616 22.8367 23.863 22.7255 23.7042C22.6327 23.5714 22.5888 23.4278 22.5938 23.2734C22.5938 22.5547 22.5938 21.8386 22.5938 21.1252C22.5938 21.1042 22.5833 21.0938 22.5623 21.0938C20.2239 21.0938 17.8855 21.0938 15.547 21.0938C15.5261 21.0938 15.5156 21.1042 15.5156 21.1252C15.5172 21.8692 15.5162 22.6078 15.5128 23.3409C15.5128 23.3566 15.5116 23.372 15.5091 23.3873C15.4719 23.6267 15.3481 23.8027 15.1378 23.9152C15.0666 23.953 14.9806 23.9813 14.88 24C14.8369 24 14.7939 24 14.7511 24C14.5292 23.9681 14.3592 23.8695 14.2411 23.7042C14.1486 23.5745 14.1047 23.4348 14.1094 23.2852C14.1075 19.7539 14.1075 16.2258 14.1094 12.7008C14.1094 12.6711 14.0945 12.6562 14.0648 12.6562C13.618 12.6562 13.175 12.6562 12.7359 12.6562C12.7141 12.6562 12.7031 12.6672 12.7031 12.6891C12.6981 12.8938 12.6981 13.0898 12.7031 13.2773C12.715 13.4961 12.6516 13.6827 12.5128 13.837C12.3728 13.9923 12.198 14.0675 11.9883 14.0625C10.832 14.0662 9.675 14.0662 8.51719 14.0625C8.49531 14.0625 8.48438 14.0733 8.48438 14.0948C8.48281 14.557 8.48375 15.0063 8.48719 15.4425C8.4875 15.4606 8.49672 15.4697 8.51484 15.4697C9.31766 15.4634 10.077 15.4669 10.793 15.48C10.8086 15.4803 10.8242 15.4814 10.8398 15.4833C11.2102 15.5252 11.5452 15.658 11.8448 15.8817C12.1989 16.1411 12.4459 16.4761 12.5859 16.8867C12.67 17.1333 12.7091 17.3872 12.7031 17.6484C12.6922 18.0666 12.6922 18.4845 12.7031 18.9023C12.7087 19.1202 12.6453 19.3067 12.5128 19.462C12.3716 19.6161 12.1967 19.6912 11.9883 19.6875C10.832 19.6912 9.675 19.6912 8.51719 19.6875C8.49531 19.6875 8.48438 19.6984 8.48438 19.7203C8.48438 20.675 8.48438 21.6219 8.48438 22.5609C8.48438 22.5828 8.49531 22.5938 8.51719 22.5938C8.72188 22.5987 8.91797 22.5987 9.10547 22.5938C9.32578 22.5837 9.51234 22.6472 9.66516 22.7841C9.82359 22.9263 9.89875 23.1011 9.89062 23.3086C9.88906 23.543 9.79047 23.7295 9.59484 23.8683C9.49766 23.937 9.38438 23.9809 9.255 24C8.27063 24 7.28625 24 6.30188 24C6.08344 23.9625 5.91734 23.8639 5.80359 23.7042C5.71109 23.5742 5.66719 23.4345 5.67188 23.2852C5.6725 23.1398 5.71844 23.0061 5.80969 22.8839C5.90688 22.7492 6.04094 22.6584 6.21187 22.6116C6.22688 22.6075 6.24219 22.605 6.25781 22.6041C6.445 22.5922 6.69969 22.5889 7.02188 22.5942C7.05938 22.5948 7.07812 22.5766 7.07812 22.5394C7.07812 21.5912 7.07812 20.6522 7.07812 19.7222C7.07812 19.6991 7.06656 19.6875 7.04344 19.6875C5.89469 19.6781 4.75781 19.6781 3.63281 19.6875C3.52344 19.6884 3.415 19.6719 3.3075 19.6378C3.12437 19.5588 2.9975 19.4356 2.92687 19.2684C2.8875 19.1753 2.865 19.0728 2.85938 18.9609C2.85844 18.5116 2.85844 18.0623 2.85938 17.6133C2.85313 17.1308 2.99078 16.702 3.27234 16.327C3.61891 15.8548 4.07594 15.5775 4.64344 15.495C4.84469 15.4659 5.07812 15.4572 5.34375 15.4688C5.91344 15.4738 6.47906 15.4728 7.04062 15.4659C7.06562 15.4656 7.07812 15.453 7.07812 15.428C7.07812 14.9708 7.07812 14.5261 7.07812 14.0939C7.07812 14.073 7.06766 14.0625 7.04672 14.0625C5.89578 14.0531 4.75781 14.0531 3.63281 14.0625C3.52344 14.0634 3.415 14.0469 3.3075 14.0128C3.12437 13.9338 2.9975 13.8106 2.92687 13.6434C2.8875 13.5503 2.865 13.4478 2.85938 13.3359C2.85938 13.1172 2.85938 12.9011 2.85938 12.6877C2.85938 12.6667 2.84891 12.6562 2.82797 12.6562C2.36453 12.6562 1.90109 12.6562 1.43766 12.6562C1.41672 12.6562 1.40625 12.6667 1.40625 12.6877C1.40625 16.1823 1.40625 19.6719 1.40625 23.1562C1.40625 23.1719 1.40688 23.1875 1.40813 23.2031C1.4275 23.4484 1.34969 23.6525 1.17469 23.8153C1.06937 23.9134 0.934687 23.975 0.770625 24C0.72375 24 0.676875 24 0.63 24C0.41125 23.9628 0.245156 23.8642 0.131719 23.7042C0.0629687 23.607 0.0190625 23.4937 0 23.3644C0 19.5363 0 15.7081 0 11.88C0.0203125 11.7303 0.0759375 11.6033 0.166875 11.4989C0.305625 11.3345 0.476562 11.2516 0.679688 11.25C1.37875 11.2447 2.09656 11.2447 2.83312 11.25C2.84875 11.25 2.85656 11.2423 2.85656 11.227C2.86 10.0855 2.86094 8.94078 2.85938 7.79297C2.855 7.25391 2.93313 6.73438 3.09375 6.23438C3.28656 5.62781 3.58734 5.08094 3.99609 4.59375C4.47203 4.02656 5.03844 3.58906 5.69531 3.28125C6.24344 3.0175 6.82937 2.86516 7.45312 2.82422C8.28469 2.76953 9.08781 2.92016 9.8625 3.27609C9.87937 3.28359 9.88781 3.27813 9.88781 3.25969C9.89281 2.42188 9.89375 1.58141 9.89062 0.738281C9.88437 0.578594 9.92828 0.431094 10.0223 0.295781C10.133 0.137344 10.297 0.03875 10.5145 0ZM21.1298 1.41938C21.1011 1.41062 21.0695 1.40625 21.0352 1.40625C17.8164 1.41031 14.5791 1.41031 11.3231 1.40625C11.3075 1.40625 11.2997 1.41391 11.2997 1.42922C11.2963 2.35984 11.2953 3.29938 11.2969 4.24781C11.2969 4.27656 11.3066 4.30125 11.3259 4.32187C11.8047 4.83594 12.1613 5.40406 12.3956 6.02625C12.6044 6.58156 12.7069 7.15484 12.7031 7.74609C12.7022 7.98047 12.7067 8.20219 12.7167 8.41125C12.7173 8.42688 12.7255 8.43469 12.7411 8.43469C15.5055 8.43812 18.2966 8.43906 21.1144 8.4375C21.13 8.4375 21.1378 8.42984 21.1378 8.41453C21.1413 6.10109 21.1422 3.77484 21.1406 1.43578C21.1406 1.42797 21.137 1.4225 21.1298 1.41938ZM10.1044 5.10656C9.835 4.86375 9.53422 4.66844 9.20203 4.52063C8.65672 4.27719 8.08547 4.18047 7.48828 4.23047C6.70797 4.29578 6.02344 4.59172 5.43469 5.11828C4.92969 5.56953 4.58781 6.11047 4.40906 6.74109C4.315 7.02984 4.26719 7.32969 4.26562 7.64062C4.25688 9.28906 4.25688 10.9505 4.26562 12.6248C4.26562 12.6458 4.27609 12.6562 4.29703 12.6562C6.60422 12.6562 8.92703 12.6562 11.2655 12.6562C11.2864 12.6562 11.2969 12.6458 11.2969 12.6248C11.2969 11.0952 11.2969 9.57047 11.2969 8.05078C11.2969 8.03516 11.2973 8.01953 11.2983 8.00391C11.3295 7.42359 11.2383 6.88156 11.0245 6.37781C10.8102 5.87344 10.5034 5.44969 10.1044 5.10656ZM12.7116 9.87609C12.7016 10.2923 12.6989 10.738 12.7036 11.213C12.7039 11.2377 12.7164 11.25 12.7411 11.25C13.6533 11.25 14.5652 11.25 15.4767 11.25C15.5027 11.25 15.5156 11.237 15.5156 11.2111C15.5156 10.7683 15.5156 10.3253 15.5156 9.88219C15.5156 9.85688 15.503 9.84422 15.4777 9.84422C14.5348 9.83953 13.6208 9.84219 12.7355 9.85219C12.7198 9.8525 12.7119 9.86047 12.7116 9.87609ZM22.5938 12.6891C22.5938 12.6804 22.5903 12.672 22.5841 12.6659C22.578 12.6597 22.5696 12.6562 22.5609 12.6562H15.5484C15.5397 12.6562 15.5314 12.6597 15.5252 12.6659C15.5191 12.672 15.5156 12.6804 15.5156 12.6891V15.4359C15.5156 15.4446 15.5191 15.453 15.5252 15.4591C15.5314 15.4653 15.5397 15.4688 15.5484 15.4688H22.5609C22.5696 15.4688 22.578 15.4653 22.5841 15.4591C22.5903 15.453 22.5938 15.4446 22.5938 15.4359V12.6891ZM11.0302 17.0363C10.9189 16.9469 10.793 16.8941 10.6523 16.8778C10.6367 16.8759 10.6211 16.875 10.6055 16.875C8.74609 16.8766 6.87891 16.8766 5.00391 16.875C4.78203 16.8691 4.5975 16.9463 4.45031 17.1066C4.29938 17.2706 4.23719 17.4747 4.26375 17.7188C4.265 17.7344 4.26547 17.75 4.26516 17.7656C4.25891 17.9841 4.26297 18.1472 4.27734 18.255C4.27922 18.2706 4.28797 18.2784 4.30359 18.2784C6.58422 18.2819 8.90656 18.2828 11.2706 18.2812C11.2859 18.2812 11.2937 18.2736 11.2941 18.2583C11.3066 18.0464 11.3075 17.8158 11.2969 17.5664C11.2875 17.3402 11.1986 17.1634 11.0302 17.0363ZM22.5938 16.9031C22.5938 16.8994 22.593 16.8958 22.5916 16.8924C22.5902 16.889 22.5881 16.8859 22.5855 16.8832C22.5829 16.8806 22.5798 16.8786 22.5764 16.8771C22.573 16.8757 22.5693 16.875 22.5656 16.875H15.5438C15.5401 16.875 15.5364 16.8757 15.533 16.8771C15.5296 16.8786 15.5265 16.8806 15.5239 16.8832C15.5213 16.8859 15.5192 16.889 15.5178 16.8924C15.5164 16.8958 15.5156 16.8994 15.5156 16.9031V19.6594C15.5156 19.6668 15.5186 19.674 15.5239 19.6793C15.5291 19.6845 15.5363 19.6875 15.5438 19.6875H22.5656C22.5731 19.6875 22.5802 19.6845 22.5855 19.6793C22.5908 19.674 22.5938 19.6668 22.5938 19.6594V16.9031Z" fill="#5D6078"/>
</g>
<defs>
<clipPath id="clip0_305_314">
<rect width="24" height="24" fill="white"/>
</clipPath>
</defs>
</svg>
